<!-- Generator: Adobe Illustrator 19.1.0, SVG Export Plug-In  -->
<svg version="1.1"
	 xmlns="http://www.w3.org/2000/svg" xmlns:xlink="http://www.w3.org/1999/xlink" xmlns:a="http://ns.adobe.com/AdobeSVGViewerExtensions/3.0/"
	 x="0px" y="0px" width="336.2px" height="170.6px" viewBox="0 0 336.2 170.6"
	 style="overflow:scroll;enable-background:new 0 0 336.2 170.6;" xml:space="preserve">
<style type="text/css">
	.st0{fill:#FFFFFF;}
	.st1{fill-rule:evenodd;clip-rule:evenodd;fill:#FFFFFF;}
</style>
<defs>
</defs>
<g>
	<g>
		<path class="st0" d="M17.5,92.7c2.9,0,5.8,0.7,8.7,2.2c5.8,3,8.7,8.4,8.7,16c0,7.7-2.9,13-8.7,16.1c-2.9,1.6-5.8,2.3-8.7,2.3H8.7
			v9.1H0V92.7H17.5z M17.5,120.1c1.4,0,2.9-0.4,4.3-1.1c2.9-1.5,4.4-4.2,4.4-8c0-3.8-1.5-6.4-4.4-8c-1.5-0.7-2.9-1.1-4.3-1.1H8.7
			v18.3H17.5z"/>
		<rect x="39.4" y="92.7" class="st0" width="8.7" height="45.8"/>
		<polygon class="st0" points="57.6,138.5 57.6,92.7 82.9,117.4 82.9,92.7 91.7,92.7 91.7,138.5 66.3,113.7 66.3,138.5 		"/>
		<polygon class="st0" points="134.7,92.7 113.9,115.7 134.7,138.5 123,138.5 107.4,121.3 107.4,138.5 98.7,138.5 98.7,92.7 
			107.4,92.7 107.4,110.2 123,92.7 		"/>
		<polygon class="st0" points="165.1,123 185.2,92.7 185.2,138.5 176.4,138.5 176.4,121.1 165.1,138.5 153.7,121.1 153.7,138.5 
			145,138.5 145,92.7 		"/>
		<path class="st0" d="M235,138.5h-10.2l-2.4-6.4h-18.2l-2.5,6.4h-10.2l21.9-45.8L235,138.5z M218.5,122.8l-5.3-11.1l-5.3,11.1
			H218.5z"/>
		<path class="st0" d="M254.7,138.5c-4.5,0-8.5-0.9-12.2-2.7c-2-1-3.5-2-4.6-3.1l3.1-3.3l2.9-3.5c0.6,0.6,1.3,1.1,2.4,1.6
			c2.5,1.3,5.3,1.9,8.5,1.9c5,0,7.8-1.5,8.2-4.4v-0.2c0-0.8-0.3-1.6-0.9-2.3c-1.3-1.6-3.8-2.3-7.3-2.3c-6.2,0-10.8-1.8-13.8-5.4
			c-2-2.3-3.1-5-3.1-8c0-0.6,0-1.1,0.1-1.7c0.5-3.6,2.2-6.6,5.2-8.9c3-2.2,6.9-3.3,11.6-3.3c4.5,0,8.5,0.9,12.2,2.7
			c2,1,3.5,2,4.6,3.1l-6,6.7c0-0.2-0.8-0.7-2.4-1.5c-2.5-1.2-5.3-1.8-8.5-1.8c-5,0-7.7,1.4-8.1,4.2v0.6c0,0.7,0.3,1.4,0.7,2
			c1.3,1.6,3.8,2.3,7.3,2.3c6.2,0,10.9,1.8,13.9,5.4c2,2.4,2.9,5.1,2.9,8c0,0.7,0,1.3-0.1,1.8c-0.4,3.6-2.1,6.5-5.2,8.8
			C263.2,137.4,259.4,138.5,254.7,138.5"/>
		<polygon class="st0" points="314.5,92.7 293.7,115.7 314.5,138.5 302.9,138.5 287.2,121.3 287.2,138.5 278.5,138.5 278.5,92.7 
			287.2,92.7 287.2,110.2 302.9,92.7 		"/>
	</g>
	<path class="st1" d="M183.8,63.8c5.4,0.6,8.7,1.3,9.8,2c0.7-7.9,0.1-13.7-1.6-17.4c-2.2-4.6-6-7.4-11.4-8.3
		c-3.2-0.5-7.7-0.6-13.4-0.1c-7.1,1-11.4,1.3-13,0.9c1.5,7.5,3.8,12.5,6.9,14.9c2.3,2.7,6.2,4.8,11.9,6.4
		C176.4,63,180,63.5,183.8,63.8 M180.5,70.8c10.8,0.4,21.7,3.4,23.3,5.5c-6.1-16.2-3.9-33.1-6.8-41.6c-4.3-15-12.7-24.1-25.1-27
		C162,6.5,152.6,6.2,143.4,7c-17.3,1.1-28.9-1.2-34.9-7c1.6,19,3.8,31.5,6.8,37.5c5.6,13.8,15.7,23.3,30.4,28.5
		C157.1,68.9,168.7,70.5,180.5,70.8"/>
</g>
<g>
	<path class="st0" d="M53.9,166.7c0-0.1,0.1-0.2,0.1-0.3c0-0.1,0.1-0.2,0.1-0.3l5.6-10.4c0.1-0.1,0.1-0.1,0.2-0.2c0.1,0,0.1,0,0.2,0
		h0.7v15H60v-12.8c0-0.2,0-0.4,0-0.6l-5.6,10.5c-0.1,0.2-0.2,0.3-0.4,0.3h-0.2c-0.2,0-0.3-0.1-0.4-0.3l-5.8-10.5c0,0.2,0,0.4,0,0.6
		v12.8h-0.9v-15h0.7c0.1,0,0.2,0,0.2,0c0.1,0,0.1,0.1,0.2,0.2l5.8,10.4C53.8,166.3,53.9,166.5,53.9,166.7"/>
	<path class="st0" d="M78.9,170.4h-0.8c-0.1,0-0.2,0-0.2-0.1c-0.1-0.1-0.1-0.1-0.1-0.2l-1.7-4.4h-7l-1.7,4.4c0,0.1-0.1,0.1-0.1,0.2
		c-0.1,0.1-0.1,0.1-0.2,0.1h-0.8l5.8-15h1L78.9,170.4z M69.4,165h6.4l-2.9-7.6c0-0.1-0.1-0.3-0.1-0.4c0-0.2-0.1-0.3-0.1-0.5
		c0,0.2-0.1,0.3-0.1,0.5c0,0.2-0.1,0.3-0.1,0.4L69.4,165z M75.5,151.7l-2.9,2.3c-0.1,0-0.1,0.1-0.2,0.1c-0.1,0-0.1,0-0.2,0h-0.7
		l2.3-2.2c0.1-0.1,0.2-0.2,0.3-0.2c0.1,0,0.2,0,0.4,0H75.5z"/>
	<path class="st0" d="M91.1,157.3c-0.1,0.1-0.1,0.2-0.3,0.2c-0.1,0-0.2-0.1-0.3-0.2c-0.1-0.1-0.3-0.3-0.6-0.4
		c-0.2-0.2-0.5-0.3-0.9-0.4c-0.4-0.1-0.8-0.2-1.3-0.2c-0.5,0-1,0.1-1.4,0.2c-0.4,0.2-0.7,0.4-1,0.6c-0.3,0.3-0.5,0.6-0.6,0.9
		c-0.1,0.4-0.2,0.7-0.2,1.1c0,0.5,0.1,0.9,0.3,1.3c0.2,0.3,0.5,0.6,0.8,0.8c0.3,0.2,0.7,0.4,1.1,0.6c0.4,0.2,0.9,0.3,1.3,0.5
		c0.5,0.2,0.9,0.3,1.3,0.5c0.4,0.2,0.8,0.4,1.1,0.7c0.3,0.3,0.6,0.6,0.8,1c0.2,0.4,0.3,0.9,0.3,1.5c0,0.6-0.1,1.2-0.3,1.8
		c-0.2,0.6-0.5,1-0.9,1.4c-0.4,0.4-0.9,0.7-1.4,1c-0.6,0.2-1.2,0.4-1.9,0.4c-0.9,0-1.8-0.2-2.4-0.5c-0.7-0.4-1.3-0.8-1.8-1.4
		l0.3-0.5c0.1-0.1,0.2-0.2,0.3-0.2c0.1,0,0.1,0,0.2,0.1c0.1,0.1,0.2,0.2,0.3,0.3c0.1,0.1,0.3,0.3,0.5,0.4c0.2,0.1,0.4,0.3,0.7,0.4
		c0.2,0.1,0.5,0.2,0.9,0.3c0.3,0.1,0.7,0.1,1.1,0.1c0.6,0,1.1-0.1,1.5-0.3c0.4-0.2,0.8-0.4,1.1-0.7c0.3-0.3,0.5-0.7,0.7-1.1
		c0.2-0.4,0.2-0.9,0.2-1.4c0-0.5-0.1-1-0.3-1.3c-0.2-0.3-0.5-0.6-0.8-0.9c-0.3-0.2-0.7-0.4-1.1-0.6c-0.4-0.2-0.9-0.3-1.3-0.5
		c-0.5-0.1-0.9-0.3-1.3-0.5c-0.4-0.2-0.8-0.4-1.1-0.7c-0.3-0.3-0.6-0.6-0.8-1.1c-0.2-0.4-0.3-1-0.3-1.6c0-0.5,0.1-1,0.3-1.5
		c0.2-0.5,0.4-0.9,0.8-1.2c0.3-0.4,0.8-0.6,1.3-0.9c0.5-0.2,1.1-0.3,1.8-0.3c0.7,0,1.4,0.1,2,0.4c0.6,0.2,1.1,0.6,1.6,1.1
		L91.1,157.3z"/>
	<path class="st0" d="M108.2,167.9c0.1,0,0.1,0,0.2,0.1l0.4,0.5c-0.3,0.3-0.6,0.6-1,0.9c-0.4,0.3-0.7,0.5-1.1,0.7
		c-0.4,0.2-0.9,0.3-1.4,0.4c-0.5,0.1-1,0.2-1.6,0.2c-1,0-1.9-0.2-2.7-0.5c-0.8-0.4-1.5-0.9-2.1-1.5c-0.6-0.7-1-1.5-1.4-2.4
		c-0.3-0.9-0.5-2-0.5-3.2c0-1.1,0.2-2.2,0.5-3.1c0.3-0.9,0.8-1.7,1.4-2.4c0.6-0.7,1.4-1.2,2.2-1.6c0.9-0.4,1.8-0.6,2.8-0.6
		c0.5,0,1,0,1.4,0.1c0.4,0.1,0.8,0.2,1.2,0.3c0.4,0.2,0.7,0.3,1.1,0.6c0.3,0.2,0.7,0.5,1,0.8l-0.3,0.5c-0.1,0.1-0.1,0.1-0.3,0.1
		c-0.1,0-0.1,0-0.2-0.1c-0.1-0.1-0.2-0.2-0.4-0.3c-0.1-0.1-0.3-0.2-0.5-0.4c-0.2-0.1-0.4-0.3-0.7-0.4c-0.3-0.1-0.6-0.2-1-0.3
		c-0.4-0.1-0.8-0.1-1.3-0.1c-0.9,0-1.7,0.2-2.4,0.5c-0.7,0.3-1.4,0.8-1.9,1.3c-0.5,0.6-0.9,1.3-1.2,2.1c-0.3,0.8-0.4,1.8-0.4,2.8
		c0,1.1,0.1,2,0.4,2.8c0.3,0.8,0.7,1.5,1.2,2.1c0.5,0.6,1.1,1,1.8,1.3c0.7,0.3,1.5,0.5,2.3,0.5c0.5,0,1,0,1.4-0.1
		c0.4-0.1,0.8-0.2,1.1-0.3c0.3-0.1,0.7-0.3,0.9-0.5c0.3-0.2,0.6-0.4,0.9-0.7c0,0,0.1-0.1,0.1-0.1
		C108.1,167.9,108.1,167.9,108.2,167.9"/>
	<path class="st0" d="M125.8,170.4H125c-0.1,0-0.2,0-0.2-0.1c-0.1-0.1-0.1-0.1-0.1-0.2l-1.7-4.4h-7l-1.7,4.4c0,0.1-0.1,0.1-0.1,0.2
		c-0.1,0.1-0.1,0.1-0.2,0.1h-0.8l5.8-15h1L125.8,170.4z M116.2,165h6.4l-2.9-7.6c0-0.1-0.1-0.3-0.1-0.4c0-0.2-0.1-0.3-0.1-0.5
		c0,0.2-0.1,0.3-0.1,0.5c0,0.2-0.1,0.3-0.1,0.4L116.2,165z"/>
	<path class="st0" d="M132.4,163.7v6.8h-1v-15h3.6c1.6,0,2.9,0.3,3.7,1c0.8,0.7,1.2,1.6,1.2,2.9c0,0.6-0.1,1.1-0.3,1.6
		c-0.2,0.5-0.5,0.9-0.8,1.2c-0.4,0.4-0.8,0.7-1.3,0.9c-0.5,0.2-1.1,0.4-1.7,0.4c0.2,0.1,0.3,0.2,0.4,0.4l4.9,6.5h-0.9
		c-0.1,0-0.2,0-0.3-0.1c-0.1,0-0.2-0.1-0.2-0.2l-4.6-6.1c-0.1-0.2-0.2-0.3-0.4-0.3c-0.1-0.1-0.3-0.1-0.6-0.1H132.4z M132.4,162.9
		h2.5c0.6,0,1.2-0.1,1.7-0.2c0.5-0.2,0.9-0.4,1.3-0.7c0.3-0.3,0.6-0.7,0.8-1.1c0.2-0.4,0.3-0.9,0.3-1.4c0-1.1-0.3-1.9-1-2.4
		c-0.7-0.5-1.6-0.8-2.9-0.8h-2.6V162.9z"/>
	<path class="st0" d="M157.6,170.4h-0.8c-0.1,0-0.2,0-0.2-0.1c-0.1-0.1-0.1-0.1-0.1-0.2l-1.7-4.4h-7l-1.7,4.4c0,0.1-0.1,0.1-0.1,0.2
		c-0.1,0.1-0.2,0.1-0.2,0.1h-0.8l5.8-15h1L157.6,170.4z M148,165h6.4l-2.9-7.6c0-0.1-0.1-0.3-0.1-0.4c0-0.2-0.1-0.3-0.1-0.5
		c-0.1,0.2-0.1,0.3-0.1,0.5c-0.1,0.2-0.1,0.3-0.1,0.4L148,165z"/>
	<path class="st0" d="M181.8,162.9c0,1.2-0.2,2.2-0.5,3.1c-0.3,0.9-0.8,1.7-1.4,2.4c-0.6,0.7-1.3,1.1-2.2,1.5
		c-0.8,0.3-1.8,0.5-2.8,0.5h-5.2v-15h5.2c1,0,1.9,0.2,2.8,0.5c0.8,0.3,1.5,0.8,2.2,1.5c0.6,0.6,1.1,1.4,1.4,2.4
		C181.6,160.8,181.8,161.8,181.8,162.9 M180.7,162.9c0-1-0.1-2-0.4-2.8c-0.3-0.8-0.7-1.5-1.2-2.1c-0.5-0.6-1.1-1-1.8-1.3
		c-0.7-0.3-1.5-0.4-2.4-0.4h-4.2v13.2h4.2c0.9,0,1.6-0.1,2.4-0.4c0.7-0.3,1.3-0.7,1.8-1.3c0.5-0.6,0.9-1.3,1.2-2.1
		C180.6,164.9,180.7,164,180.7,162.9"/>
	<polygon class="st0" points="196.7,155.5 196.7,156.4 189.2,156.4 189.2,162.4 195.4,162.4 195.4,163.3 189.2,163.3 189.2,169.5 
		196.7,169.5 196.7,170.4 188.1,170.4 188.1,155.5 	"/>
	<path class="st0" d="M215.3,169.7c0.7,0,1.3-0.1,1.8-0.4c0.5-0.3,1-0.6,1.4-1c0.4-0.4,0.7-1,0.9-1.6c0.2-0.6,0.3-1.3,0.3-2v-9.3h1
		v9.3c0,0.8-0.1,1.6-0.4,2.3c-0.2,0.7-0.6,1.3-1.1,1.9c-0.5,0.5-1,1-1.7,1.3c-0.7,0.3-1.4,0.5-2.3,0.5c-0.8,0-1.6-0.2-2.3-0.5
		c-0.7-0.3-1.2-0.7-1.7-1.3c-0.5-0.5-0.8-1.2-1.1-1.9c-0.3-0.7-0.4-1.5-0.4-2.3v-9.3h1v9.3c0,0.7,0.1,1.4,0.3,2
		c0.2,0.6,0.5,1.1,0.9,1.6c0.4,0.4,0.8,0.8,1.4,1C214,169.5,214.6,169.7,215.3,169.7"/>
	<path class="st0" d="M228.6,155.5c0.1,0,0.1,0.1,0.2,0.2l9.2,13c0-0.2,0-0.4,0-0.6v-12.6h0.9v15h-0.5c-0.2,0-0.3-0.1-0.4-0.2
		l-9.3-13c0,0.2,0,0.4,0,0.6v12.6h-0.9v-15h0.5C228.4,155.5,228.5,155.5,228.6,155.5 M234.9,153.3c0.3,0,0.5-0.1,0.6-0.3
		c0.1-0.2,0.2-0.4,0.2-0.7h0.5c0,0.3,0,0.5-0.1,0.7c-0.1,0.2-0.1,0.4-0.3,0.6c-0.1,0.2-0.3,0.3-0.4,0.4c-0.2,0.1-0.4,0.1-0.6,0.1
		c-0.2,0-0.4-0.1-0.6-0.2c-0.2-0.1-0.4-0.2-0.6-0.4c-0.2-0.1-0.4-0.3-0.5-0.4c-0.2-0.1-0.4-0.2-0.5-0.2c-0.3,0-0.5,0.1-0.6,0.3
		c-0.1,0.2-0.2,0.4-0.2,0.7h-0.6c0-0.2,0-0.5,0.1-0.7c0.1-0.2,0.2-0.4,0.3-0.6c0.1-0.2,0.3-0.3,0.4-0.4c0.2-0.1,0.4-0.1,0.6-0.1
		c0.2,0,0.4,0.1,0.6,0.2c0.2,0.1,0.4,0.2,0.6,0.4c0.2,0.1,0.4,0.3,0.5,0.4C234.6,153.3,234.8,153.3,234.9,153.3"/>
	<path class="st0" d="M256.9,170.4h-0.8c-0.1,0-0.2,0-0.2-0.1c-0.1-0.1-0.1-0.1-0.1-0.2l-1.7-4.4h-7l-1.7,4.4c0,0.1-0.1,0.1-0.1,0.2
		c-0.1,0.1-0.1,0.1-0.2,0.1h-0.8l5.8-15h1L256.9,170.4z M247.3,165h6.4l-2.9-7.6c0-0.1-0.1-0.3-0.1-0.4c0-0.2-0.1-0.3-0.1-0.5
		c0,0.2-0.1,0.3-0.1,0.5c0,0.2-0.1,0.3-0.1,0.4L247.3,165z"/>
	<path class="st0" d="M269.1,157.3c-0.1,0.1-0.2,0.2-0.3,0.2c-0.1,0-0.2-0.1-0.3-0.2c-0.1-0.1-0.3-0.3-0.6-0.4
		c-0.2-0.2-0.5-0.3-0.9-0.4c-0.4-0.1-0.8-0.2-1.3-0.2c-0.5,0-1,0.1-1.4,0.2c-0.4,0.2-0.7,0.4-1,0.6c-0.3,0.3-0.5,0.6-0.6,0.9
		c-0.1,0.4-0.2,0.7-0.2,1.1c0,0.5,0.1,0.9,0.3,1.3c0.2,0.3,0.5,0.6,0.8,0.8c0.3,0.2,0.7,0.4,1.2,0.6c0.4,0.2,0.9,0.3,1.3,0.5
		c0.5,0.2,0.9,0.3,1.3,0.5c0.4,0.2,0.8,0.4,1.1,0.7c0.3,0.3,0.6,0.6,0.8,1c0.2,0.4,0.3,0.9,0.3,1.5c0,0.6-0.1,1.2-0.3,1.8
		c-0.2,0.6-0.5,1-0.9,1.4c-0.4,0.4-0.9,0.7-1.4,1c-0.6,0.2-1.2,0.4-1.9,0.4c-0.9,0-1.8-0.2-2.4-0.5c-0.7-0.4-1.3-0.8-1.8-1.4
		l0.3-0.5c0.1-0.1,0.2-0.2,0.3-0.2c0.1,0,0.1,0,0.2,0.1c0.1,0.1,0.2,0.2,0.3,0.3c0.1,0.1,0.3,0.3,0.5,0.4c0.2,0.1,0.4,0.3,0.7,0.4
		c0.3,0.1,0.5,0.2,0.9,0.3c0.3,0.1,0.7,0.1,1.1,0.1c0.6,0,1.1-0.1,1.5-0.3c0.4-0.2,0.8-0.4,1.1-0.7c0.3-0.3,0.5-0.7,0.7-1.1
		c0.2-0.4,0.2-0.9,0.2-1.4c0-0.5-0.1-1-0.3-1.3c-0.2-0.3-0.5-0.6-0.8-0.9c-0.3-0.2-0.7-0.4-1.1-0.6c-0.4-0.2-0.9-0.3-1.3-0.5
		c-0.4-0.1-0.9-0.3-1.3-0.5c-0.4-0.2-0.8-0.4-1.1-0.7c-0.3-0.3-0.6-0.6-0.8-1.1c-0.2-0.4-0.3-1-0.3-1.6c0-0.5,0.1-1,0.3-1.5
		c0.2-0.5,0.4-0.9,0.8-1.2c0.4-0.4,0.8-0.6,1.3-0.9c0.5-0.2,1.1-0.3,1.8-0.3c0.7,0,1.4,0.1,2,0.4c0.6,0.2,1.1,0.6,1.6,1.1
		L269.1,157.3z"/>
</g>
<g>
	<path class="st0" d="M336.2,83c0,3.1-2.5,5.5-5.6,5.5c-3.2,0-5.7-2.4-5.7-5.5c0-3.1,2.5-5.5,5.7-5.5
		C333.7,77.5,336.2,79.9,336.2,83z M326.3,83c0,2.5,1.8,4.4,4.3,4.4c2.4,0,4.2-1.9,4.2-4.4c0-2.5-1.8-4.4-4.3-4.4
		C328.1,78.6,326.3,80.6,326.3,83z M329.7,85.9h-1.3v-5.5c0.5-0.1,1.2-0.2,2.1-0.2c1,0,1.5,0.2,1.9,0.4c0.3,0.2,0.6,0.6,0.6,1.2
		c0,0.7-0.5,1.1-1.1,1.3v0.1c0.5,0.2,0.8,0.6,1,1.3c0.2,0.8,0.3,1.1,0.4,1.3h-1.3c-0.2-0.2-0.3-0.7-0.4-1.3
		c-0.1-0.6-0.4-0.8-1.1-0.8h-0.6V85.9z M329.7,82.8h0.6c0.7,0,1.3-0.2,1.3-0.8c0-0.5-0.4-0.8-1.2-0.8c-0.3,0-0.6,0-0.7,0.1V82.8z"/>
</g>
</svg>
